<svg xmlns="http://www.w3.org/2000/svg" style="display: none;">
  <symbol id="Bookmark" viewBox="0 0 24 24"><path d="M19 21l-7-4"/><path d="M12 17l-7 4V5a2 2 0 0 1 2-2h10a2 2 0 0 1 2 2v10"/></symbol>
  <symbol id="Share" viewBox="0 0 24 24"><path d="M8.59 13.51l4.82 2.82"/><path d="M15.41 6.51l-4.82 2.82"/><path d="M21 5a3 3 0 1 1-6 0 3 3 0 0 1 6 0z"/><path d="M9 12a3 3 0 1 1-6 0 3 3 0 0 1 6 0z"/><path d="M21 19a3 3 0 1 1-6 0 3 3 0 0 1 6 0z"/></symbol>
  <symbol id="External" viewBox="0 0 24 24"><path d="M18 13v6a2 2 0 0 1-2 2H5a2 2 0 0 1-2-2V8a2 2 0 0 1 2-2h6"/><path d="M15 3h6v6"/><path d="M10 14L21 3"/></symbol>
  <symbol id="Home" viewBox="0 0 24 24"><path d="M3 9l9-7"/><path d="M12 2l9 7v11a2 2 0 0 1-2 2H5a2 2 0 0 1-2-2V9"/><path d="M9 22V12h6v10"/></symbol>
  <symbol id="Rss" viewBox="0 0 24 24"><path d="M4 11a9 9 0 0 1 9 9"/><path d="M4 4a16 16 0 0 1 16 16"/><path d="M5 20h.01"/></symbol>
  <symbol id="Search" viewBox="0 0 24 24"><path d="M21 21l-4.35-4.35"/><path d="M19 11a8 8 0 1 1-16 0 8 8 0 0 1 16 0z"/></symbol>
  <symbol id="Settings" viewBox="0 0 24 24"><path d="M12 15a3 3 0 1 0 0-6 3 3 0 0 0 0 6z"/><path d="M19.4 15a1.65 1.65 0 0 0 .33 1.82l.06.06a2 2 0 0 1 0 2.83 2 2 0 0 1-2.83 0l-.06-.06a1.65 1.65 0 0 0-1.82-.33 1.65 1.65 0 0 0-1 1.51V21a2 2 0 0 1-2 2 2 2 0 0 1-2-2v-.09A1.65 1.65 0 0 0 9 19.4a1.65 1.65 0 0 0-1.82.33l-.06.06a2 2 0 0 1-2.83 0 2 2 0 0 1 0-2.83l.06-.06a1.65 1.65 0 0 0 .33-1.82 1.65 1.65 0 0 0-1.51-1H3a2 2 0 0 1-2-2 2 2 0 0 1 2-2h.09A1.65 1.65 0 0 0 4.6 9a1.65 1.65 0 0 0-.33-1.82l-.06-.06a2 2 0 0 1 0-2.83 2 2 0 0 1 2.83 0l.06.06a1.65 1.65 0 0 0 1.82.33H9a1.65 1.65 0 0 0 1-1.51V3a2 2 0 0 1 2-2 2 2 0 0 1 2 2v.09a1.65 1.65 0 0 0 1 1.51 1.65 1.65 0 0 0 1.82-.33l.06-.06a2 2 0 0 1 2.83 0 2 2 0 0 1 0 2.83l-.06.06a1.65 1.65 0 0 0-.33 1.82V9a1.65 1.65 0 0 0 1.51 1H21a2 2 0 0 1 2 2 2 2 0 0 1-2 2h-.09a1.65 1.65 0 0 0-1.51 1z"/></symbol>
  <symbol id="Bell" viewBox="0 0 24 24"><path d="M18 8A6 6 0 0 0 6 8c0 7-3 9-3 9h18s-3-2-3-9"/><path d="M13.73 21a2 2 0 0 1-3.46 0"/></symbol>
  <symbol id="Trash" viewBox="0 0 24 24"><path d="M3 6h18"/><path d="M19 6v14a2 2 0 0 1-2 2H7a2 2 0 0 1-2-2V6m3 0V4a2 2 0 0 1 2-2h4a2 2 0 0 1 2 2v2"/><path d="M10 11v6"/><path d="M14 11v6"/></symbol>
  <symbol id="Edit" viewBox="0 0 24 24"><path d="M11 4H4a2 2 0 0 0-2 2v14a2 2 0 0 0 2 2h14a2 2 0 0 0 2-2v-7"/><path d="M18.5 2.5a2.121 2.121 0 1 1 3 3L12 15l-4 1 1-4 9.5-9.5z"/></symbol>
  <symbol id="Check" viewBox="0 0 24 24"><path d="M20 6L9 17"/><path d="M4 12l5 5"/></symbol>
  <symbol id="Plus" viewBox="0 0 24 24"><path d="M12 5v14"/><path d="M5 12h14"/></symbol>
  <symbol id="Chevron" viewBox="0 0 24 24"><path d="M6 9l6 6"/><path d="M12 15l6-6"/></symbol>
  <symbol id="Clock" viewBox="0 0 24 24"><path d="M12 22a10 10 0 1 0 0-20 10 10 0 0 0 0 20z"/><path d="M12 6v6l4 2"/></symbol>
  <symbol id="User" viewBox="0 0 24 24"><path d="M20 21v-2a4 4 0 0 0-4-4H8a4 4 0 0 0-4 4v2"/><path d="M12 11a4 4 0 1 0 0-8 4 4 0 0 0 0 8z"/></symbol>
  <symbol id="Message" viewBox="0 0 24 24"><path d="M21 11.5a8.38 8.38 0 0 1-.9 3.8 8.5 8.5 0 0 1-7.6 4.7 8.38 8.38 0 0 1-3.8-.9L3 21l1.9-5.7a8.38 8.38 0 0 1-.9-3.8 8.5 8.5 0 0 1 4.7-7.6 8.38 8.38 0 0 1 3.8-.9h.5a8.48 8.48 0 0 1 8 8v.5z"/></symbol>
  <symbol id="Eye" viewBox="0 0 24 24"><path d="M1 12s4-8 11-8 11 8 11 8-4 8-11 8-11-8-11-8z"/><path d="M12 15a3 3 0 1 0 0-6 3 3 0 0 0 0 6z"/></symbol>
  <symbol id="Grid" viewBox="0 0 24 24"><path d="M3 3h7v7H3z"/><path d="M14 3h7v7h-7z"/><path d="M14 14h7v7h-7z"/><path d="M3 14h7v7H3z"/></symbol>
  <symbol id="Filter" viewBox="0 0 24 24"><path d="M22 3H2l8 9.46V19l4 2v-8.54L22 3z"/></symbol>
  <symbol id="Star" viewBox="0 0 24 24"><path d="M12 2l3.09 6.26L22 9.27l-5 4.87 1.18 6.88L12 17.77l-6.18 3.25L7 14.14 2 9.27l6.91-1.01L12 2z"/></symbol>
  <symbol id="Heart" viewBox="0 0 24 24"><path d="M20.84 4.61a5.5 5.5 0 0 0-7.78 0L12 5.67l-1.06-1.06a5.5 5.5 0 0 0-7.78 7.78l1.06 1.06L12 21.23l7.78-7.78 1.06-1.06a5.5 5.5 0 0 0 0-7.78z"/></symbol>
  <symbol id="Lock" viewBox="0 0 24 24"><path d="M7 11V7a5 5 0 0 1 10 0v4"/><path d="M19 11H5a2 2 0 0 0-2 2v7a2 2 0 0 0 2 2h14a2 2 0 0 0 2-2v-7a2 2 0 0 0-2-2z"/></symbol>
  <symbol id="Globe" viewBox="0 0 24 24"><path d="M12 22a10 10 0 1 0 0-20 10 10 0 0 0 0 20z"/><path d="M2 12h20"/><path d="M12 2a15.3 15.3 0 0 1 4 10 15.3 15.3 0 0 1-4 10 15.3 15.3 0 0 1-4-10 15.3 15.3 0 0 1 4-10z"/></symbol>
  <symbol id="Tag" viewBox="0 0 24 24"><path d="M20.59 13.41l-7.17 7.17a2 2 0 0 1-2.83 0L2 12V2h10l8.59 8.59a2 2 0 0 1 0 2.82z"/><path d="M7 7h.01"/></symbol>
  <symbol id="Link" viewBox="0 0 24 24"><path d="M10 13a5 5 0 0 0 7.54.54l3-3a5 5 0 0 0-7.07-7.07l-1.72 1.71"/><path d="M14 11a5 5 0 0 0-7.54-.54l-3 3a5 5 0 0 0 7.07 7.07l1.71-1.71"/></symbol>
  <symbol id="Download" viewBox="0 0 24 24"><path d="M21 15v4a2 2 0 0 1-2 2H5a2 2 0 0 1-2-2v-4"/><path d="M7 10l5 5"/><path d="M12 15l5-5"/><path d="M12 3v12"/></symbol>
  <symbol id="Calendar" viewBox="0 0 24 24"><path d="M19 4H5a2 2 0 0 0-2 2v14a2 2 0 0 0 2 2h14a2 2 0 0 0 2-2V6a2 2 0 0 0-2-2z"/><path d="M16 2v4"/><path d="M8 2v4"/><path d="M3 10h18"/></symbol>
  <symbol id="Video" viewBox="0 0 24 24"><path d="M23 7l-7 5 7 5V7z"/><path d="M1 5h15v14H1V5z"/></symbol>
  <symbol id="Image" viewBox="0 0 24 24"><path d="M3 3h18v18H3V3z"/><path d="M8.5 8.5a1.5 1.5 0 1 1 0 3 1.5 1.5 0 0 1 0-3z"/><path d="M21 15l-5-5L5 21"/></symbol>
  <symbol id="Shield" viewBox="0 0 24 24"><path d="M12 22s8-4 8-10V5l-8-3-8 3v7c0 6 8 10 8 10z"/></symbol>
  <symbol id="Database" viewBox="0 0 24 24"><path d="M12 5c5.5 0 10 1.3 10 3s-4.5 3-10 3-10-1.3-10-3 4.5-3 10-3z"/><path d="M2 17c0 1.7 4.5 3 10 3s10-1.3 10-3"/><path d="M2 12c0 1.7 4.5 3 10 3s10-1.3 10-3"/><path d="M2 8v9"/><path d="M22 8v9"/></symbol>
  <symbol id="Terminal" viewBox="0 0 24 24"><path d="M4 17l6-6-6-6"/><path d="M12 19h8"/></symbol>
  <symbol id="Layers" viewBox="0 0 24 24"><path d="M12 2L2 7l10 5 10-5-10-5z"/><path d="M2 17l10 5 10-5"/><path d="M2 12l10 5 10-5"/></symbol>
  <symbol id="Cloud" viewBox="0 0 24 24"><path d="M18 10h-1.26A8 8 0 1 0 9 20h9a5 5 0 0 0 0-10z"/></symbol>
  <symbol id="Bluetooth" viewBox="0 0 24 24"><path d="M6.5 6.5l11 11L12 23V1l5.5 5.5-11 11"/></symbol>
  <symbol id="Briefcase" viewBox="0 0 24 24"><path d="M16 21V5a2 2 0 0 0-2-2h-4a2 2 0 0 0-2 2v16"/><path d="M2 9h20v10a2 2 0 0 1-2 2H4a2 2 0 0 1-2-2V9z"/></symbol>
  <symbol id="Coffee" viewBox="0 0 24 24"><path d="M18 8h1a4 4 0 0 1 0 8h-1"/><path d="M2 8h16v9a4 4 0 0 1-4 4H6a4 4 0 0 1-4-4V8z"/><path d="M6 1v3"/><path d="M10 1v3"/><path d="M14 1v3"/></symbol>
  <symbol id="Folder" viewBox="0 0 24 24"><path d="M22 19a2 2 0 0 1-2 2H4a2 2 0 0 1-2-2V5a2 2 0 0 1 2-2h5l2 3h9a2 2 0 0 1 2 2v11z"/></symbol>
  <symbol id="Gift" viewBox="0 0 24 24"><path d="M20 12v9a2 2 0 0 1-2 2H6a2 2 0 0 1-2-2v-9"/><path d="M12 22V7"/><path d="M2 7h20v5H2V7z"/><path d="M12 7H7.5a2.5 2.5 0 0 1 0-5C11 2 12 7 12 7z"/><path d="M12 7h4.5a2.5 2.5 0 0 0 0-5C13 2 12 7 12 7z"/></symbol>
  <symbol id="Map" viewBox="0 0 24 24"><path d="M1 6l7-4 8 4 7-4v16l-7 4-8-4-7 4V6z"/><path d="M8 2v16"/><path d="M16 6v16"/></symbol>
  <symbol id="Mouse" viewBox="0 0 24 24"><path d="M12 2a7 7 0 0 0-7 7v6a7 7 0 0 0 14 0V9a7 7 0 0 0-7-7z"/><path d="M12 6v4"/></symbol>
  <symbol id="Paperclip" viewBox="0 0 24 24"><path d="M21.44 11.05l-9.19 9.19a6 6 0 0 1-8.49-8.49l9.19-9.19a4 4 0 0 1 5.66 5.66l-9.2 9.19a2 2 0 0 1-2.83-2.83l8.49-8.48"/></symbol>
  <symbol id="Send" viewBox="0 0 24 24"><path d="M22 2L11 13"/><path d="M22 2l-7 20-4-9-9-4 20-7z"/></symbol>
  <symbol id="Slack" viewBox="0 0 24 24"><path d="M14.5 10c-.83 0-1.5-.67-1.5-1.5v-5c0-.83.67-1.5 1.5-1.5s1.5.67 1.5 1.5v5c0 .83-.67 1.5-1.5 1.5z"/><path d="M20.5 10H19V8.5c0-.83.67-1.5 1.5-1.5s1.5.67 1.5 1.5-.67 1.5-1.5 1.5z"/><path d="M9.5 14c.83 0 1.5.67 1.5 1.5v5c0 .83-.67 1.5-1.5 1.5s-1.5-.67-1.5-1.5v-5c0-.83.67-1.5 1.5-1.5z"/><path d="M3.5 14H5v1.5c0 .83-.67 1.5-1.5 1.5S2 16.33 2 15.5 2.67 14 3.5 14z"/></symbol>
  <symbol id="Umbrella" viewBox="0 0 24 24"><path d="M23 12a11.05 11.05 0 0 0-22 0zm-5 7a3 3 0 0 1-6 0v-7"/></symbol>
  <symbol id="Watch" viewBox="0 0 24 24"><path d="M12 18a6 6 0 1 0 0-12 6 6 0 0 0 0 12z"/><path d="M12 12V9"/><path d="M16 12h-4"/><path d="M7 1h10"/><path d="M7 23h10"/></symbol>
  <symbol id="Wind" viewBox="0 0 24 24"><path d="M9 4c0-1.1.9-2 2-2s2 .9 2 2-.9 2-2 2H2"/><path d="M12.6 19.4c0 1.1-.9 2-2 2s-2-.9-2-2 .9-2 2-2h7.4"/><path d="M17.7 15.5c0 1.1-.9 2-2 2s-2-.9-2-2 .9-2 2-2H2.5"/></symbol>
  <symbol id="Zap" viewBox="0 0 24 24"><path d="M13 2L3 14h9l-1 8 10-12h-9l1-8z"/></symbol>
  <symbol id="Target" viewBox="0 0 24 24"><path d="M12 22a10 10 0 1 0 0-20 10 10 0 0 0 0 20z"/><path d="M12 16a4 4 0 1 0 0-8 4 4 0 0 0 0 8z"/><path d="M12 12h.01"/></symbol>
  <symbol id="Key" viewBox="0 0 24 24"><path d="M21 7l-6.7 6.7M19 9l2 2-2 2"/><path d="M10 13a5 5 0 1 1-10 0 5 5 0 0 1 10 0z"/></symbol>
  <symbol id="Sun" viewBox="0 0 24 24"><circle cx="12" cy="12" r="5"/><line x1="12" y1="1" x2="12" y2="3"/><line x1="12" y1="21" x2="12" y2="23"/><line x1="4.22" y1="4.22" x2="5.64" y2="5.64"/><line x1="18.36" y1="18.36" x2="19.78" y2="19.78"/><line x1="1" y1="12" x2="3" y2="12"/><line x1="21" y1="12" x2="23" y2="12"/><line x1="4.22" y1="19.78" x2="5.64" y2="18.36"/><line x1="18.36" y1="5.64" x2="19.78" y2="4.22"/></symbol>
  <symbol id="Moon" viewBox="0 0 24 24"><path d="M21 12.79A9 9 0 1 1 11.21 3 7 7 0 0 0 21 12.79z"/></symbol>
  <symbol id="PanelLeftClose" viewBox="0 0 24 24"><rect width="18" height="18" x="3" y="3" rx="2"/><path d="M9 3v18"/><path d="m16 15-3-3 3-3"/></symbol>
  <symbol id="PanelLeftOpen" viewBox="0 0 24 24"><rect width="18" height="18" x="3" y="3" rx="2"/><path d="M9 3v18"/><path d="m14 9 3 3-3 3"/></symbol>
  <symbol id="X" viewBox="0 0 24 24" fill="none" stroke="currentColor" stroke-width="2" stroke-linecap="round" stroke-linejoin="round">
    <path d="M18 6 6 18" />
    <path d="m6 6 12 12" />
  </symbol>
  <symbol id="ArrowRight" viewBox="0 0 24 24"><path d="M5 12h14"/><path d="m12 5 7 7-7 7"/></symbol>
</svg>
